<?xml version="1.0" encoding="UTF-8" standalone="no"?>
<!-- Created with Inkscape (http://www.inkscape.org/) -->

<svg
   xmlns:dc="http://purl.org/dc/elements/1.1/"
   xmlns:cc="http://creativecommons.org/ns#"
   xmlns:rdf="http://www.w3.org/1999/02/22-rdf-syntax-ns#"
   xmlns:svg="http://www.w3.org/2000/svg"
   xmlns="http://www.w3.org/2000/svg"
   xmlns:sodipodi="http://sodipodi.sourceforge.net/DTD/sodipodi-0.dtd"
   xmlns:inkscape="http://www.inkscape.org/namespaces/inkscape"
   width="75.662354mm"
   height="83.760567mm"
   viewBox="0 0 268.09495 296.78941"
   id="svg5731"
   version="1.1"
   inkscape:version="0.91 r"
   sodipodi:docname="monster_03.svg">
  <defs
     id="defs5733" />
  <sodipodi:namedview
     id="base"
     pagecolor="#ffffff"
     bordercolor="#666666"
     borderopacity="1.0"
     inkscape:pageopacity="0.0"
     inkscape:pageshadow="2"
     inkscape:zoom="0.35"
     inkscape:cx="61.904625"
     inkscape:cy="25.53756"
     inkscape:document-units="px"
     inkscape:current-layer="layer1"
     showgrid="false"
     fit-margin-top="0"
     fit-margin-left="0"
     fit-margin-right="0"
     fit-margin-bottom="0"
     inkscape:window-width="1366"
     inkscape:window-height="744"
     inkscape:window-x="0"
     inkscape:window-y="24"
     inkscape:window-maximized="1" />
  <metadata
     id="metadata5736">
    <rdf:RDF>
      <cc:Work
         rdf:about="">
        <dc:format>image/svg+xml</dc:format>
        <dc:type
           rdf:resource="http://purl.org/dc/dcmitype/StillImage" />
        <dc:title></dc:title>
      </cc:Work>
    </rdf:RDF>
  </metadata>
  <g
     inkscape:label="Calque 1"
     inkscape:groupmode="layer"
     id="layer1"
     transform="translate(265.47605,-261.11035)">
    <path
       style="fill:#000000"
       d="m -265.45973,338.82547 c 1.01969,-7.85133 3.08471,-16.99156 6.74784,-24.49955 5.53234,-12.11216 14.51345,-24.49078 25.79583,-32.80445 -2.27319,-3.53593 -10.0089,-4.45239 -10.57672,-10.13536 5.12287,-2.56657 10.1074,1.81953 13.32953,4.74551 3.08604,2.78274 3.69175,-5.17661 4.46265,-7.0793 1.62385,-3.11079 5.05551,-10.37938 9.32548,-7.11873 1.86109,4.96583 -2.48738,10.32098 -5.79561,13.75104 -6.86637,4.5445 2.6072,1.59602 5.97337,1.77307 3.83908,-0.8812 9.325,3.72386 4.12491,6.35085 -4.48583,2.74945 -9.63651,1.2735 -13.9593,-0.55023 -5.86737,-2.2923 -10.58202,5.67936 -15.06236,8.96721 -6.55261,7.36816 -12.64708,16.77617 -16.11928,25.08046 -3.74525,9.30944 -6.84386,19.99826 -5.249,30.18697 0.88542,4.28219 2.77813,6.4872 4.73731,10.33002 3.03307,4.06914 6.0106,9.21392 9.47084,12.02578 3.29408,4.08666 12.80943,6.41198 14.59489,-0.41495 2.62527,-5.55235 8.51824,-11.21321 11.8334,-14.5438 -8.62901,3.88109 -17.93683,7.28716 -24.52714,14.39616 -4.62335,-0.60539 0.37241,-5.61171 0.68331,-8.51848 4.90546,-13.48017 15.79166,-23.52295 27.84971,-30.93479 7.37537,-6.21326 16.94536,-8.15363 25.75873,-10.81003 -3.27864,-1.28676 -12.24058,0.20861 -17.76214,0.44007 -8.94978,0.85491 -18.09598,3.5315 -26.46764,6.13618 -4.54436,-2.1371 6.23437,-7.8511 7.15089,-10.14555 11.27789,-7.3162 23.96341,-9.74305 36.56475,-12.50535 6.78942,-1.37342 13.94065,-0.6667 20.49864,-1.25977 1.79143,-0.86847 -3.69556,-2.87135 -5.05482,-4.05919 -2.91179,-1.35573 -3.69175,-2.08563 -6.72996,-3.84301 -4.7365,-3.13034 -9.0921,-5.554 -12.9136,-9.93109 2.64197,-1.83416 7.74187,0.35713 11.08185,0.87567 6.87446,1.67959 13.14657,2.58038 19.34373,4.07709 8.42647,2.35297 17.05951,5.27778 23.24407,11.43453 1.71259,-1.14678 -2.22773,-4.98813 -3.22237,-7.15145 -3.38003,-6.49345 -8.44837,-11.76909 -12.84076,-17.45316 -1.55471,-1.66678 -2.72924,-5.49171 0.83117,-3.60416 6.34613,2.11998 11.46413,5.52039 17.193,8.44653 6.97859,4.55249 14.02766,10.20229 19.03788,16.96036 9.60234,-7.60356 21.94265,-11.42827 33.898099,-14.0157 5.20936,-0.4351 12.70913,-1.34336 18.46725,-2.28361 1.90641,2.15771 -3.40956,2.83208 -4.64539,3.2075 -10.78865,4.87751 -23.7917,10.75911 -26.395659,23.71697 -2.68239,6.76531 3.428279,0.43072 6.251539,0.46546 9.38032,-3.66831 20.67165,-4.09168 30.75452,-5.48721 8.67497,0.89506 18.54104,0.39204 26.39317,1.92892 1.04785,3.00543 -6.5102,1.43853 -8.4493,2.89063 -11.91658,3.27129 -27.11887,9.23776 -30.26539,22.45356 6.18008,0.7966 10.88268,2.18833 16.93387,3.92532 4.96948,1.75475 12.31053,4.66045 16.14222,6.41572 7.47918,3.77981 15.53559,7.56167 22.24897,12.71734 -1.5695,1.47934 -4.44559,-1.08305 -6.64188,-1.45569 -7.5633,-2.69989 -16.45833,-6.28804 -24.93192,-7.56307 -2.95492,-0.55602 -8.96996,-0.99375 -10.69669,0.23305 1.44707,2.89477 5.91983,5.15851 8.27228,7.38747 5.8501,3.01643 9.8499,8.27014 14.49024,12.64403 1.6607,2.43557 4.41422,8.72561 8.34658,5.00481 9.99894,-7.05614 20.7883,-14.30547 25.7463598,-26.03102 6.02089002,-15.4408 3.91223,-33.82707 -2.78324,-48.30121 -2.0266098,-1.16379 -4.3713798,2.0132 -6.2742698,2.37745 -3.83815,1.168 -10.18575,-0.74731 -11.3515,-4.64838 0.81621,-5.72198 7.84584,-2.5926 10.44234,-3.28769 -3.09391,-3.97652 -8.11485,-5.98522 -10.14939,-11.11223 -2.33122,-5.51355 4.31649,-6.00531 7.22834,-2.71797 4.09085,3.088 4.2935,9.41543 8.25191,12.56724 1.9105598,-4.19892 3.1587898,-12.3429 9.6072998,-10.2492 6.63701,-0.42709 3.30177,7.96638 0.11217,10.08092 -1.77276,3.16373 -8.39466,3.18697 -5.44473,7.5043 6.61621002,14.49873 8.43658,32.31126 3.294,47.83241 -4.83704,13.17658 -17.1634798,21.36268 -28.0061798,29.20704 -4.71458,1.50664 0.66028,5.94885 0.65742,9.10159 1.23429,4.84249 4.48919,9.645 4.81453,14.40808 -4.26801,0.87014 -3.48749,-7.28399 -6.67406,-10.49874 -2.27494,-2.36967 -3.58767,-3.75058 -5.81757,-5.55934 -6.84738,-4.21504 -12.77378,-8.93641 -19.90785,-12.59583 -2.49164,0.90552 1.43151,5.38818 1.56739,8.00544 4.61048,10.16355 7.48008,21.21408 6.45165,32.5815 -2.15866,3.77285 5.07341,21.93145 -2.06352,18.69372 -2.87411,-5.54976 -5.15216,-10.30045 -8.73226,-15.36751 -4.00373,-3.7898 -6.08261,-8.85682 -10.59433,-12.72784 -4.14593,-1.44657 -0.49046,4.94804 -0.29253,7.06807 3.84647,13.41257 2.87726,27.43093 0.60421,41.05668 1.72517,5.9081 -4.86192,4.65629 -4.23123,0.43579 -1.74376,-5.32226 -3.97973,-9.95219 -9.06932,-12.86573 -2.34138,-1.96468 -3.96098,-3.19031 -6.51371,-4.97334 -1.85341,6.08383 -1.59741,13.0806 -3.14456,19.52674 -1.62903,4.05663 -0.64087,11.07049 -4.22643,13.41557 -3.639169,-2.102 -3.474519,-6.05979 -7.671589,-7.38408 -0.19385,-6.30263 -6.74764,-9.85304 -11.2263,-13.65514 -1.24095,-1.28042 -1.48359,-3.41588 -3.1937,-3.11541 -1.90687,9.1452 -0.82329,20.22879 -1.23406,30.07019 0.74134,17.93236 0.52854,36.22143 1.55058,54.0052 7.84458,0.0315 15.44391,-2.44502 23.127479,-3.2251 4.30523,-1.38362 7.87909,-1.61822 12.67216,-3.29794 3.61063,-2.43721 7.08109,2.54046 1.66288,3.15734 -8.5578,1.93359 -16.45067,3.7841 -24.902769,5.17142 -3.81124,1.43865 -8.00026,0.77614 -11.34381,2.97699 1.09095,2.721 4.31598,3.72652 6.15875,6.83757 4.81302,3.87451 10.87948,8.48329 15.198819,12.15243 4.33359,3.12619 8.17594,6.26669 12.86591,9.0929 2.95468,3.7341 -3.15025,2.8013 -4.65108,0.87995 -2.0106,-2.16437 -6.29734,-4.71841 -8.00993,-6.16857 -6.583699,-5.40935 -13.787169,-10.15606 -19.557849,-15.55013 -1.83881,-2.70688 -4.26872,-5.12366 -7.48839,-5.91417 -4.89442,1.06783 -11.1975,2.25316 -15.11209,2.5795 -5.16328,3.07862 -9.35059,-3.1325 -3.02165,-4.65575 5.18981,1.05886 10.68726,-1.34114 15.82029,-1.6316 5.20333,-0.0814 1.98587,-7.80831 2.66422,-10.69603 0.14029,-5.71545 -0.38713,-11.4492 0.0774,-16.30597 0.22131,-15.30814 -0.59312,-30.97941 -0.34368,-45.5142 0.1106,-3.94033 0.15094,-7.3376 -0.14344,-10.94407 0.25804,-3.05226 2.6759,-6.64109 0.95273,-9.25798 -3.65476,1.26938 -5.81109,8.88582 -9.01442,12.49617 -2.79294,3.5652 -2.9305,9.3661 -6.64291,11.85487 -4.75354,-3.15389 -7.58738,-8.86225 -11.20939,-13.28267 -2.1556,-3.32346 -3.17266,-6.37438 -5.12845,-9.79377 -5.58801,4.54969 -8.36791,12.25073 -13.61211,17.14046 -3.92103,-1.06691 -2.35835,-5.10148 -4.96416,-8.07635 -2.41808,-4.16287 -6.59997,-8.18998 -8.66516,-13.1656 -3.39677,-0.39543 -6.12958,7.48318 -5.76124,11.34346 -0.66225,7.95169 -1.21269,15.9601 -1.73325,22.90694 -0.68767,14.49188 -0.34593,29.19502 -0.65653,43.79144 0.82824,4.23474 -1.36807,9.32719 1.35233,12.71089 4.40103,0.12878 10.09336,-2.86827 13.66151,0.10611 1.80568,2.79743 -1.84966,3.78174 -3.59296,2.56696 -6.32872,0.28319 -12.63425,2.93729 -18.90761,2.48665 -5.64523,3.96572 -11.55882,9.28398 -16.78604,13.74974 -3.11965,2.16546 -6.42776,5.94822 -10.34453,6.9752 -1.6037,-0.77396 -1.31885,-3.27401 1.05938,-4.35583 8.92537,-5.89222 16.59141,-13.67259 24.7809,-20.12115 -4.27837,-1.48186 -9.66692,-2.84348 -14.34526,-3.63162 -4.13906,-0.64342 -7.71665,-1.15842 -12.14699,-1.74876 -3.34241,-1.15472 -8.92214,-0.098 -12.39666,-0.45209 -2.23193,-5.03197 6.38767,-4.18984 8.8828,-4.03069 9.63376,0.78662 18.81362,2.65525 28.42114,5.07651 2.50657,0.25774 7.89057,3.06292 6.4567,-2.06183 -0.0223,-5.24135 0.54917,-9.89128 0.42982,-15.39189 0.0682,-3.22928 0.66108,-7.40039 0.84617,-11.3449 -0.35642,-15.55795 0.73949,-29.90426 2.11062,-45.57632 0.90308,-7.78079 -5.42995,3.28552 -7.21164,5.50891 -2.2889,4.72272 -6.33012,1.31818 -5.07873,-2.72427 -1.88099,-6.61243 -1.76243,-13.82234 -3.08785,-20.69842 -8.15977,7.22333 -15.89578,14.69002 -21.89413,23.56141 -3.7783,-0.37676 -3.71903,-6.23772 -4.5041,-9.31737 0.0251,-6.09585 -0.456,-12.12776 0.0505,-17.94798 1.25168,-6.28406 4.08256,-12.44891 6.61034,-17.83335 -6.62564,5.4772 -11.65639,12.6076 -14.47748,20.31339 -4.56507,4.37185 -2.65247,-5.75673 -2.16223,-8.51571 1.7129,-13.16332 2.93373,-26.10497 6.10995,-38.65563 -8.51906,0.54806 -15.34616,-5.43639 -19.18732,-12.52096 -2.36722,-3.49367 -5.03754,-6.94289 -6.06589,-9.8254 -2.65276,-4.53656 -3.19693,-9.7422 -3.0725,-14.85101 z m 11.28371,24.15374 c 0.33589,-0.22821 -0.18642,-0.28165 0,0 z m 5.92197,9.77885 c 0.35752,-0.11834 -0.34834,-0.24118 0,0 z m 5.27392,-10.33899 c 12.82119,-7.25037 26.39004,-12.52948 40.09993,-17.51606 3.75785,2.5772 -3.16521,3.53115 -5.12948,4.76994 -15.42609,7.21204 -27.15114,21.48327 -28.94394,38.34022 -1.42335,7.75021 -2.25413,16.76306 -3.29895,24.94679 2.23919,-1.07698 4.26376,-5.27995 6.61804,-7.3885 8.13973,-7.80301 16.79227,-15.31732 26.27713,-21.43979 7.44433,0.77353 -4.10277,5.95746 -6.33683,8.23816 -9.78154,8.18088 -15.35318,19.79796 -17.12773,32.04521 0.39722,6.26618 -0.77365,12.66989 1.26084,18.67745 4.0857,-3.57587 6.80256,-9.43767 11.87742,-12.47357 5.40504,-2.23699 8.47938,-12.83346 13.76032,-12.19339 -0.11494,3.43528 -0.35111,7.93848 0.0361,10.92931 0.98033,5.26508 0.84157,10.95452 2.61588,16.25606 5.56223,-7.02332 11.56004,-13.99525 17.08863,-21.16856 3.60019,-0.38799 3.10249,4.53283 4.84455,7.09126 3.41126,5.26123 7.13574,8.45033 9.3061,14.70229 5.2617,-5.09978 9.04136,-12.54429 14.11912,-18.02905 3.91257,1.58059 1.80328,6.24733 4.42467,9.23704 2.902,6.40135 6.38823,10.43162 10.93298,15.8912 3.44967,-4.92658 4.5985,-10.08854 8.49887,-15.09633 2.59792,-3.4226 4.43514,-8.68432 7.19628,-11.13841 3.11742,2.92484 4.33643,6.78155 6.69794,9.88369 3.35316,6.17457 11.54291,8.67589 13.68429,15.58685 2.00703,1.46495 3.39034,2.48205 4.512969,4.51751 2.55986,-3.63016 2.49131,-10.57391 3.6744,-15.42031 1.2815,-5.12887 0.68237,-10.6224 2.27897,-15.51829 3.96952,-0.16204 5.57027,3.7039 8.80146,5.52077 3.32346,2.19558 6.03495,4.50509 8.35082,7.16707 1.40189,1.29411 2.48701,5.73047 3.21431,2.00322 3.26936,-14.103 0.96867,-28.73801 -2.85263,-42.26776 -1.80793,-3.53744 1.93091,-4.64493 4.40188,-1.94544 6.61288,3.95635 9.79401,11.63811 14.98646,17.36059 1.40502,2.21724 2.95199,4.46818 4.3025,6.73005 0.48796,-8.86463 -0.0763,-17.95031 -0.48222,-26.8394 -1.26923,-9.7631 -6.46739,-18.94252 -9.45991,-28.13864 0.26257,-3.20184 4.70136,0.83993 6.76175,1.3446 6.66653,4.13195 13.08526,8.49676 19.27108,12.55227 5.55912,6.15453 2.68443,-1.87584 0.85456,-4.91827 -4.58931,-7.49124 -9.59459,-14.00745 -16.54783,-19.21622 -5.62103,-3.27998 -10.03878,-7.98057 -15.80193,-11.47158 0.43018,-3.99474 9.88452,-1.64576 13.53654,-1.77303 7.27542,0.90242 13.70975,3.13447 20.44295,5.41118 -1.096,-2.17026 -3.36381,-2.21939 -5.34504,-3.63264 -5.27446,-2.50262 -11.39302,-5.39447 -16.36803,-6.93805 -7.52808,-2.85445 -14.97011,-4.51898 -23.02154,-4.87299 -1.00347,-3.23416 1.8984,-7.07765 3.50054,-10.05854 6.25569,-8.43384 16.71936,-12.62694 26.06089,-15.53399 -2.6644,-2.41179 -10.68541,-1.69413 -15.3528,-1.64286 -12.63515,1.71781 -26.12724,2.07156 -36.744009,9.83478 -4.2672,-0.46949 -1.68069,-6.81423 -0.9148,-10.03171 1.95606,-9.20844 12.256269,-15.46282 18.932189,-18.35681 5.46846,-3.30736 -4.46692,-1.50706 -6.67952,-0.70497 -10.422759,2.82083 -21.721669,5.91881 -29.566029,13.86293 -0.86637,4.0267 -4.52075,-2.25659 -5.56891,-3.8554 -6.17771,-7.37618 -13.55777,-12.47263 -21.83579,-17.01922 -2.36867,-1.2071 -6.39404,-3.47992 -9.49512,-4.22537 -0.60001,4.70802 6.08883,6.8612 7.62922,11.18219 2.56075,5.28002 7.06997,10.98138 9.74765,15.6607 -1.02735,0.89194 -1.78067,3.9987 -3.60162,2.3078 -2.06942,-4.04749 -7.21985,-7.68695 -11.23466,-9.14993 -3.89926,-1.81333 -10.48691,-3.76207 -15.43347,-4.91728 -7.20664,-0.98344 -14.13377,-3.27468 -21.53877,-3.90585 0.55876,3.28055 5.75078,4.48063 7.95705,7.03424 6.28649,2.96377 11.71879,7.74145 18.26035,10.43543 -0.87823,2.87036 -4.94545,0.50048 -9.23047,0.48856 -16.22907,-0.006 -32.38727,3.65387 -47.26364,10.27525 -2.69524,1.16644 -12.57917,7.29343 -7.80712,6.84055 11.73192,-2.84024 23.48005,-4.14204 35.57732,-4.16466 4.2204,0.24213 9.20213,-0.73111 13.02419,0.23815 1.14938,2.75817 -5.14446,2.50815 -7.04054,3.55789 -10.92335,2.50196 -22.03132,5.4664 -30.84788,12.8675 -10.79536,7.24259 -21.03409,16.50125 -24.54788,29.17417 z m 13.06958,-41.48118 c 0.26046,0.14114 -0.42163,0.0437 0,0 z m 15.64616,-3.22702 c 0.26046,0.14114 -0.42163,0.0437 0,0 z m 23.46923,-31.68346 c 0.26046,0.14114 -0.42163,0.0437 0,0 z m 10.19722,1.70176 c 0.62069,-0.33382 -0.0538,0.33269 0,0 z m 0.59536,6.22606 c 0.41224,0.18069 -0.31921,0.12972 0,0 z m 0.89092,102.1588 c 2.32419,-6.35498 8.91529,-10.22616 13.53739,-14.69216 10.00614,-7.25292 22.86227,-3.90208 33.90162,-0.97293 5.53901,1.11391 10.84945,3.15824 15.40886,4.4178 3.63707,1.06758 5.70586,1.77354 8.7931,3.18706 1.21184,2.17793 7.559819,1.50295 4.66575,5.09237 -10.30968,11.30317 -26.06906,15.83525 -40.88857,13.97776 -12.52068,-0.11991 -23.90653,-4.78431 -34.79818,-10.01645 -0.25003,-0.25744 -0.65495,-0.5956 -0.61997,-0.99345 z m 3.61223,-0.42457 c 1.56161,2.82065 6.67309,3.14286 9.23835,4.64748 4.26421,1.0464 8.53019,3.85752 12.79199,2.92869 1.6411,-2.91717 2.63816,-7.76272 5.0951,-8.99006 3.26957,1.2468 4.31333,3.75712 6.38075,6.28576 2.12742,-1.64666 2.23868,-8.42303 5.52036,-6.93111 4.16143,2.2261 4.63796,8.10966 7.15337,11.14902 8.8508,-2.03825 18.06534,-5.72182 23.79205,-13.17389 -2.64251,-2.21378 -7.46132,-5.10887 -11.55713,-5.03267 -3.70552,2.20901 -5.65731,6.43697 -6.684,10.75094 -4.18118,0.13924 -1.35459,-5.61768 -3.90119,-7.85423 -1.91174,-4.14042 -3.47884,-8.75683 -8.96684,-8.60246 -4.07281,-0.43006 -10.44566,-3.95208 -13.38795,-0.2821 -4.87825,2.39128 -4.609,9.20484 -6.88259,13.36354 -4.01634,-0.73905 -0.60618,-7.79777 -4.54454,-9.78224 -4.6774,-1.62082 -8.45243,7.41908 -12.82343,9.66522 -0.46742,0.56294 -0.9216,1.19527 -1.2243,1.85811 z m 25.62061,-15.25501 c 0.35749,0.11847 -0.34841,0.24107 0,0 z m -15.05942,4.93832 c 0.34823,-0.24127 -0.35752,-0.1182 0,0 z m 3.32479,-1.36904 c 0.3576,-0.11833 -0.34843,-0.24118 0,0 z m 1.3658,-1.32305 c 1.71091,0.40311 2.00764,5.51903 3.76877,2.0096 0.62262,-2.54684 4.36938,-6.4543 -0.83299,-4.30469 -0.6451,0.50638 -3.83564,1.01852 -2.93578,2.29509 z m 9.67208,21.76879 c 5.17751,1.88569 8.37167,-1.18825 4.88738,-5.89567 -2.27384,-4.36186 -4.2296,4.56114 -4.88738,5.89567 z m 10.60391,0.6819 c 3.46077,1.11576 8.71139,-0.2867 6.20397,-4.65042 -0.1534,-1.17875 -1.88859,-6.16404 -3.59429,-2.52016 -0.61192,2.04207 -3.30505,5.70149 -2.60968,7.17058 z m 5.93453,-5.38369 c 0.35084,0.24969 -0.35074,0.25 0,0 z m -3.32479,-6.60072 c 0.35752,-0.11821 -0.34823,-0.24127 0,0 z m 7.38566,-8.47759 c -0.0146,-0.34511 -0.40721,0.10142 0,0 z m 1.56331,-0.23753 c 1.85445,1.27461 2.62784,7.67178 4.98616,4.23026 3.53657,-3.27458 2.37452,-4.30647 -1.67452,-4.85396 -1.06807,-0.35886 -3.2523,-1.32061 -3.31164,0.6237 z m 12.19782,1.85343 c 1.22184,-0.26598 -1.1375,0.01 0,0 z m -60.22522,49.15521 c 0.46494,0.006 -0.0595,0.51033 0,0 z m 5.15797,7.50359 c 0.32735,0.36283 -0.22256,0.0738 0,0 z m 6.5794,-107.25521 c 0.12988,-9.59998 8.03584,-17.72892 16.8772,-19.15484 5.54793,-1.2578 12.56915,-0.76941 13.70878,5.47212 4.94194,1.76571 4.12479,10.60723 8.91685,3.59635 5.7006,-5.16123 14.28225,-4.7362 20.6013,-1.5722 6.505709,3.15289 12.532539,10.24744 9.707239,18.09425 -0.3935,7.56804 -7.714039,14.00231 -14.284439,14.47138 -4.76684,0.17746 -10.41489,0.28701 -15.08306,-2.02615 -4.29323,-2.23405 -9.72317,-5.83727 -9.97455,-11.1479 -3.92877,6.52209 -11.57855,6.78745 -18.1555,5.79843 -3.4721,-0.20083 -8.03647,-3.69304 -10.19539,-7.02547 -1.3351,-1.56569 -2.43798,-3.76792 -2.11843,-6.50597 z m 2.14849,2.63801 c 1.27415,7.61292 10.3448,10.8553 17.357,9.40531 7.98167,-0.55838 10.40926,-9.98811 13.42624,-16.02307 1.33686,-4.8135 -1.34235,-8.55122 -5.3971,-10.24122 -3.17003,-2.25368 -8.54137,-4.66503 -13.18444,-1.99475 -7.4958,3.1086 -12.66657,10.66378 -12.2017,18.85373 z m 6.42547,-6.3936 c 1.46428,-6.96532 11.16669,-9.3209 15.22396,-4.75689 5.70227,2.36968 3.51332,10.08495 -2.26933,11.93215 -5.11763,1.77347 -13.49765,-0.30062 -12.95463,-7.17526 z m 3.31654,6.25657 c 0.35749,-0.11846 -0.34841,-0.24107 0,0 z m 5.2259,-5.81841 c 0.33588,-0.22823 -0.18605,-0.28166 0,0 z m 0.43968,-0.25005 c 4.76482,1.35584 3.2257,-4.67836 -0.18963,-0.23798 l 0.18944,0.238 z m -1.73573,17.42983 c -0.0428,-0.18827 -0.42917,0.14023 0,0 z m 0.66621,-32.63036 c 0.35074,-0.25 -0.35084,-0.24969 0,0 z m 16.27397,27.45411 c 0.50522,6.29825 7.69005,9.21028 12.76215,10.14111 8.87036,2.52525 19.711379,-1.8784 21.523139,-11.69844 1.82076,-4.6599 1.33039,-11.41112 -2.356239,-13.51886 -0.81656,-4.88516 -5.47308,0.88758 -5.40498,-3.33437 -3.21657,-2.0342 -7.61157,-3.95713 -11.79342,-2.01373 -8.3661,2.40683 -14.89199,11.73788 -14.73065,20.42429 z m 7.45644,-5.65853 c 1.95606,-7.42909 10.35432,-9.1385 16.57134,-6.73654 5.64337,2.60376 6.22201,11.63039 -0.51718,14.28142 -5.5968,1.49675 -16.61234,0.28943 -16.05416,-7.54488 z m 5.11718,-3.06909 c 0.37239,-0.3509 -0.38561,-0.12135 0,0 z m 1.60155,-1.51572 c 0.46515,-0.005 -0.0595,-0.51007 0,0 z m 4.34061,4.0615 c 3.57607,-0.3794 1.4598,-2.86726 0,0 z m -4.55194,18.05662 c 0.15769,-0.38181 -0.45015,0.32995 0,0 z m -35.81175,20.63087 c 0.44077,0.0856 -0.44078,0.0856 0,0 z m 5.7206,30.06805 c 0.51658,0.0845 -0.51302,0.23218 0,0 z m 18.62737,-79.02592 c 0.20858,0.14743 -0.38091,0.25124 0,0 z m 11.05122,108.30006 c 0.35096,0.24986 -0.35096,0.24986 0,0 z m 7.06943,-50.01254 c 0.43647,0.21086 -0.2461,0.10644 0,0 z m 13.034269,-98.1293 c 0.2613,0.14104 -0.42157,0.0436 0,0 z m 2.38763,150.39093 c 0.34845,0.24108 -0.35752,0.11811 0,0 z m 0.58675,-4.69381 c 0.34845,0.24108 -0.35762,0.118 0,0 z m 13.69617,0.0978 c 0.18589,0.28187 -0.33553,0.22793 0,0 z m 12.8713,-90.96158 c 0.14014,0.42888 -0.189,0.0419 0,0 z m 8.53857,21.97184 c 0.34842,0.24107 -0.35749,0.11846 0,0 z m 8.46687,4.45708 c 0.26131,0.14105 -0.42157,0.0436 0,0 z m 16.37142,6.39744 c 0.34842,0.24118 -0.35761,0.11833 0,0 z m 0.0978,-29.33653 c 0.34823,0.24127 -0.35752,0.1182 0,0 z m -0.0309,29.75824 c 0.13994,0.42915 -0.18889,0.0415 0,0 z m 1.50362,5.79096 c 0.81937,0.10913 0.0662,0.52966 0,0 z m -206.828529,-108.166 c 3.05671,1.64693 4.83274,3.75258 7.62919,5.21658 5.27336,1.98727 -0.34299,-5.11377 -2.68612,-5.01254 -1.09959,-0.30792 -4.22631,-1.88273 -4.94307,-0.20404 z m 7.52972,1.96457 c 0.34835,0.24117 -0.35752,0.11833 0,0 z m -5.33525,240.07071 c 0.33582,-0.22817 -0.18639,-0.28163 0,0 z m 1.63761,-139.96631 c -0.0424,-0.18828 -0.42864,0.14016 0,0 z m 5.32702,69.58303 c 0.15874,-0.53852 -0.17118,-0.0978 0,0 z m 0.48832,-22.00054 c 0.17845,-0.65166 -0.17777,-0.11761 0,0 z m -0.005,0.63174 c 0.20548,-0.38723 -0.22041,-0.0914 0,0 z m 3.39878,-143.29371 c 2.53104,1.3414 5.29132,1.05478 7.64116,2.56047 4.5878,1.499 12.65819,-5.9254 2.70786,-3.98243 -2.76,0.74734 -7.40754,1.65281 -8.84173,0.0425 -0.51536,-0.24745 -2.00572,0.8649 -1.50729,1.37939 z m 1.23602,263.89337 c 0.34832,-0.2412 -0.35747,-0.11799 0,0 z m 2.71362,-271.78126 c 3.26787,-2.88486 5.3085,-5.64433 5.5747,-9.45186 -3.02226,1.6415 -5.63361,6.72538 -5.5747,9.45186 z m 0.12224,243.47153 c 0.35756,-0.118 -0.34838,-0.2412 0,0 z m 2.8542,-3.20916 c -0.0419,-0.18902 -0.42888,0.14017 0,0 z m 5.75119,4.3337 c 0.35075,-0.2498 -0.35075,-0.2498 0,0 z m 14.57047,3.47151 c 0.35756,-0.11799 -0.34838,-0.2412 0,0 z m 3.73431,3.92942 c -0.0433,-0.18799 -0.42842,0.14151 0,0 z m 0.0795,0.51991 c 0.34829,-0.24132 -0.35754,-0.11769 0,0 z m 2.60185,-30.11885 c 0.17356,-0.39186 -0.31884,-0.38174 0,0 z m 0.3318,-7.04077 c 0.35086,-0.24986 -0.35086,-0.24986 0,0 z m 2.46305,-169.88953 c -0.0424,-0.18828 -0.42865,0.14016 0,0 z m 2.09999,125.71362 c 0.15873,-0.53851 -0.17118,-0.0978 0,0 z m 6.44836,-14.71921 c 0.20548,-0.38722 -0.22042,-0.0914 0,0 z m 3.16118,-142.99333 c 0.37745,0.1098 -0.0615,-0.37916 0,0 z m 22.26383,-10.14341 c 0.20621,-0.38689 -0.22101,-0.0916 0,0 z m 6.88387,166.56026 c 0.35084,-0.24974 -0.35075,-0.25004 0,0 z m 4.99875,4.88944 c 0.16935,-0.33944 -0.45674,-0.16133 0,0 z m 2.31655,-146.75608 c 0.8729,0.21739 -0.79774,-1.53003 0,0 z m 0.6056,-0.61118 c 0.41464,-0.0958 -0.0575,-0.61773 0,0 z m 18.44355,-2.73807 c 0.1728,-0.39193 -0.31875,-0.38184 0,0 z m 0,184.50037 c 0.20432,-0.38919 -0.21929,-0.0887 0,0 z m 0.13623,8.72965 c 0.35731,-0.38156 -0.35722,-0.38186 0,0 z m 2.5095,-3.30037 c 0.1581,-0.53851 -0.17037,-0.0978 0,0 z m 0.67881,32.51261 c 0.2056,-0.3878 -0.22082,-0.0901 0,0 z m 0.19557,10.85456 c 0.20654,-0.38671 -0.22149,-0.0919 0,0 z m 4.63478,-89.98779 c 0.35084,-0.24975 -0.35075,-0.25005 0,0 z m 1.29568,84.70068 c -0.0978,-0.17035 -0.53854,0.15811 0,0 z m 11.84639,-4.95422 c 0.31878,-0.38185 -0.17282,-0.39197 0,0 z m 1.62397,-64.247 c 0.38514,0.24326 -0.40989,-0.71693 0,0 z m 4.074089,5.10942 c 0.1581,-0.53851 -0.17038,-0.0978 0,0 z m 13.64398,-153.87669 c -0.0423,-0.18851 -0.42833,0.14074 0,0 z m 2.03523,-23.19377 c 0.0692,1.05294 0.51715,-0.11848 -2.4e-4,6e-5 z m 1.46683,154.06571 c 0.35095,-0.24987 -0.35096,-0.24987 0,0 z m 2.01486,3.39612 c 0.20649,-0.38653 -0.22144,-0.0919 0,0 z m 2.00025,-109.59437 c 0.47812,-0.0757 -0.31634,-0.2747 0,0 z m 2.20491,77.9374 c 0.17281,-0.39192 -0.31874,-0.38184 0,0 z m 3.21656,-106.2607 c 0.51301,-0.2321 -0.51645,-0.0846 0,0 z m 8.06756,106.16292 c 0.34823,-0.24128 -0.35752,-0.11821 0,0 z m 3.90845,5.76951 c 0.17281,-0.39191 -0.31874,-0.38183 0,0 z m 0.80372,-79.63079 c -0.0423,-0.18852 -0.42834,0.14074 0,0 z m 1.93438,47.55617 c 0.2398,1.06704 0.12731,-0.68923 0,0 z m 12.42217,-6.84519 c 0.35085,-0.24969 -0.35073,-0.25 0,0 z m 5.18281,-5.57394 c 0.34843,-0.24118 -0.3576,-0.11833 0,0 z m 0.93159,-66.12388 c -0.0147,-0.34513 -0.40708,0.10154 0,0 z m 4.0556,76.0983 c 0.34842,-0.24107 -0.35749,-0.11846 0,0 z m 5.67175,-32.17239 c 0.35761,-0.11833 -0.34842,-0.24118 0,0 z m 2.2703,15.76185 c 0.15768,-0.3818 -0.45015,0.32994 0,0 z m 1.1057,-86.03455 c 1.40921,4.49249 7.91409,7.24337 10.89123,11.55066 1.25505,-2.56145 -3.81405,-4.26179 -3.37764,-6.73986 -1.12326,-3.11282 -3.08777,-9.21081 -7.12464,-8.07502 -0.67457,0.88782 -0.71125,2.25059 -0.38895,3.26422 z m 0.3778,15.44607 c 3.06612,3.54213 8.29206,0.73965 10.97407,-1.67061 -2.96696,-0.94681 -11.04798,-3.98187 -10.97407,1.67061 z m 16.2488098,-5.41107 c 3.72855,-0.75934 7.97199002,-4.7217 7.27046002,-9.08801 -4.15064002,-2.65391 -7.13978002,5.56036 -7.27046002,9.08801 z M -262.62877,338.72768 c 0.3622,0.25065 -0.35059,0.37592 0,0 z m 3.71664,16.52625 c 0.34834,0.24117 -0.35752,0.11833 0,0 z m 3.02447,5.04059 c 0.53458,0.2702 -0.41585,0.23637 0,0 z m 7.14167,7.08831 c 0.30694,-0.3852 0.0474,0.34103 0,0 z m 0.004,0.29053 c 0.35059,0.37593 -0.3622,0.25065 0,0 z m 4.75083,7.53743 c 0.26047,0.14114 -0.42163,0.0437 0,0 z m 0.82306,37.1519 c 0.35081,0.24985 -0.35081,0.24985 0,0 z m 1.53459,-11.12158 c 0.14474,0.64452 -0.16221,0.12514 0,0 z m 3.65316,-123.63123 c 0.18642,0.28165 -0.33589,0.22821 0,0 z m 0.56783,47.87557 c 0.48591,-0.22993 -0.14056,0.35759 0,0 z m 18.66252,211.7103 c 0.24613,0.1063 -0.43689,0.21047 0,0 z m 3.04369,-19.71069 c 0.29462,0.36295 -0.3036,0.24478 0,0 z m 7.53788,15.43698 c 0.82026,-0.66942 -0.67804,0.90826 0,0 z m 14.54859,-47.43215 c 0.14006,0.42876 -0.18823,0.0424 0,0 z m 3.1602,-3.69762 c 0.35075,0.2498 -0.35076,0.2498 0,0 z m 19.65866,-31.92694 c 0.28781,0.30217 -0.34937,0.0764 0,0 z m 24.24414,-1.37005 c 0.34846,0.2412 -0.35764,0.118 0,0 z m 9.58324,-165.60476 c 0.35074,0.25 -0.35084,0.24969 0,0 z m 12.41915,172.74335 c 0.46221,0.24417 -0.329,0.40058 0,0 z m 0.0671,8.14701 c 0.13951,0.42955 -0.18869,0.0406 0,0 z m 0.12879,7.49911 c 0.35752,0.11811 -0.34846,0.24108 0,0 z m 8.81928,59.33115 c 0.37754,0.57809 -0.40096,0.0825 0,0 z m 2.02346,-5.00961 c 0.45676,0.1612 -0.16933,0.33944 0,0 z m 0.75311,8.22192 c 0.26121,0.1409 -0.42201,0.0424 0,0 z m 6.3659,-80.89713 c 0.14011,0.42894 -0.18898,0.0418 0,0 z m 3.16025,70.76828 c 0.35752,0.11812 -0.34845,0.24108 0,0 z m 9.525299,25.24936 c 0.60055,0.63682 -0.75985,-0.41846 0,0 z m 6.02283,-28.50979 c 0.44071,0.0852 -0.44071,0.0852 0,0 z m 3.15553,-237.5719 c 0.86933,0.1663 -0.39715,0.23282 0,0 z m 13.06686,116.29874 c 0.47609,0.0919 -0.17164,0.39537 0,0 z m 16.05356,-20.73116 c 0.18592,0.2819 -0.3356,0.22794 0,0 z m 12.32157,-32.07461 c 0.18605,0.28167 -0.33587,0.22823 0,0 z m 0.66675,31.19451 c 0.59312,0.007 -0.18982,0.52645 0,0 z m 8.91073,7.28525 c 0.35752,0.1182 -0.34823,0.24127 0,0 z m 12.3214,-110.45208 c 0.34823,0.24128 -0.35752,0.11821 0,0 z"
       id="path4458"
       inkscape:connector-curvature="0"
       sodipodi:nodetypes="ccccccccccccccccccccccccccccccccccccccccccccccccccccccccccccccccccccccccccccccccccccccccccccccccccccccccccccccccccccccccccccccccccccccccccccccccccccccccccccccccccccccccccccccccccccccccccccccccccccccccccccccccccccccccccccccccccccccccccccccccccccccccccccccccccccccccccccccccccccccccccccccccccccccccccccccccccccccccccccccccccccccccccccccccccccccccccccccccccccccccccccccccccccccccccccccccccccccccccccccccccccccccccccccccccccccccccccccccccccccccccccccccccccccccccccccccccccccccccccccccccccccccccccccccccccccccccccccccccccccccccccccccccccccccccccccccccccccccccccccccccccccccccccccccccccc" />
    <path
       style="opacity:1;fill:#000080;fill-opacity:1;fill-rule:nonzero;stroke:#000000;stroke-width:0.50507629;stroke-linecap:round;stroke-linejoin:round;stroke-miterlimit:4;stroke-dasharray:none;stroke-dashoffset:0;stroke-opacity:1"
       d="m -102.35168,453.96229 c -1.25276,-1.31777 -2.60176,-3.0465 -2.99778,-3.84161 -0.39602,-0.79511 -3.07122,-3.6229 -5.94489,-6.28398 -4.88948,-4.52774 -5.98733,-5.88637 -10.12221,-12.52662 -0.88313,-1.41823 -2.07934,-3.00725 -2.65825,-3.53115 -1.03574,-0.93734 -1.06827,-0.93315 -2.03578,0.26167 -0.54077,0.66782 -1.80714,2.71141 -2.81417,4.5413 -1.00703,1.82989 -2.55474,4.34985 -3.43937,5.59991 -0.88463,1.25007 -3.0356,5.0521 -4.77993,8.44897 -1.74432,3.39687 -3.36542,6.05627 -3.60245,5.90978 -0.23702,-0.14648 -1.91853,-2.17141 -3.73669,-4.49982 -4.27354,-5.47288 -7.60454,-11.5308 -8.52056,-15.49587 -0.63788,-2.76113 -1.73392,-4.46458 -2.8726,-4.46458 -0.4488,0 -2.83533,2.98169 -7.68094,9.59645 -2.1367,2.91681 -4.42166,5.94513 -5.07767,6.72958 l -1.19276,1.42629 -1.3219,-2.68898 c -0.72703,-1.47893 -2.92411,-4.84817 -4.88238,-7.4872 -2.24803,-3.0295 -3.85006,-5.77403 -4.34603,-7.44543 -0.72364,-2.43861 -2.20324,-4.20276 -3.48047,-4.1498 -0.28543,0.0118 -1.42632,1.20507 -2.53532,2.65165 -1.109,1.44657 -4.84305,6.10892 -8.29789,10.36077 -4.98295,6.13248 -6.3744,7.56468 -6.73079,6.92785 -0.75188,-1.34355 -2.40025,-15.85561 -2.40033,-21.13225 -7e-5,-4.90269 -0.0129,-4.95483 -1.13649,-4.63033 -2.00022,0.57766 -3.58434,2.01525 -6.9448,6.30238 -1.99655,2.54712 -4.37153,4.90731 -6.06092,6.02319 -1.67589,1.10696 -4.47681,3.883 -7.06039,6.99767 -3.96094,4.77515 -4.31692,5.07756 -4.7412,4.02766 -0.79224,-1.96047 -1.01805,-15.85906 -0.32145,-19.78546 0.67485,-3.8038 2.98924,-10.84152 4.66302,-14.17963 3.16916,-6.32038 9.33245,-13.33812 15.28871,-17.40823 4.1959,-2.8672 5.53193,-4.24843 5.12787,-5.30139 -0.57928,-1.50956 -2.89984,-0.81433 -7.07127,2.11852 -8.30256,5.83739 -21.1209,17.19872 -24.92773,22.0943 -1.38061,1.77547 -2.43821,2.74522 -2.56829,2.35496 -0.51996,-1.55986 3.11958,-26.74329 4.52156,-31.28655 2.39924,-7.77498 6.67687,-14.44925 13.24613,-20.66759 4.91477,-4.65224 10.10215,-8.0711 15.81975,-10.42634 3.05847,-1.25987 3.96916,-1.86916 4.09489,-2.73965 0.0903,-0.62547 -0.15506,-1.24101 -0.55612,-1.39491 -1.36255,-0.52286 -23.87131,8.54722 -34.16429,13.76676 -2.89536,1.46822 -5.36838,2.5654 -5.4956,2.43818 -0.46267,-0.46266 2.06877,-5.84231 4.44669,-9.44981 2.84043,-4.30915 8.857,-10.4888 13.88935,-14.26581 8.52327,-6.3971 10.78227,-7.91374 14.61735,-9.81374 5.12028,-2.53673 9.54958,-4.01931 19.63801,-6.57329 8.00696,-2.02703 9.43373,-2.61927 9.43373,-3.9159 0,-0.84237 -0.63345,-0.88148 -12.12183,-0.74833 -13.51146,0.1566 -24.46107,1.33235 -36.61803,3.93199 -1.42097,0.30386 -1.4681,0.26643 -0.75761,-0.60167 1.32587,-1.61999 7.24223,-5.16504 11.64849,-6.9797 16.92837,-6.97173 36.74039,-10.183 50.0153,-8.10682 1.32373,0.20703 2.04742,0.0482 2.68468,-0.589 0.82652,-0.82652 0.66472,-0.98399 -3.07494,-2.99255 -2.17106,-1.16606 -5.65201,-3.23041 -7.73545,-4.58743 -2.08343,-1.35702 -4.62615,-2.92882 -5.65048,-3.49289 -2.94815,-1.62345 -7.14067,-4.56649 -8.19113,-5.74995 -0.95934,-1.08081 -0.95786,-1.08394 0.50508,-1.06543 0.80699,0.0102 3.05823,0.35208 5.00278,0.75972 1.94454,0.40763 3.9901,0.82295 4.54568,0.92294 11.2758,2.02928 22.81387,5.24616 27.73904,7.7338 2.77232,1.40026 6.71793,4.69727 8.07446,6.74712 0.72817,1.10033 1.64515,2.0006 2.03773,2.0006 0.69057,0 2.80741,-2.28359 2.80741,-3.02856 0,-0.20182 -1.83501,-3.18269 -4.07781,-6.62414 -2.24279,-3.44146 -4.7801,-7.57444 -5.63847,-9.18439 -0.85836,-1.60996 -2.41942,-3.60735 -3.46902,-4.43864 -1.89897,-1.50401 -3.98729,-4.35683 -3.98729,-5.44696 0,-1.02639 1.29284,-0.61299 6.74259,2.15606 10.61198,5.39201 19.36574,12.15108 24.53981,18.94802 1.68455,2.21292 3.32448,4.1852 3.64429,4.38285 0.33503,0.20706 1.13775,-0.29392 1.89402,-1.18208 2.86855,-3.36881 9.47343,-7.36322 16.62963,-10.05704 4.570139,-1.72035 15.016279,-4.59611 18.220499,-5.016 3.47643,-0.45555 3.14839,0.245 -1.12323,2.39872 -7.08027,3.56983 -13.03378,8.76429 -15.248179,13.30409 -1.82426,3.73998 -3.41587,10.93209 -2.78593,12.58895 0.71519,1.88111 1.84987,2.11912 3.976129,0.83405 6.5703,-3.97098 13.23082,-5.94059 25.58526,-7.56591 8.72831,-1.14828 20.46253,-1.41528 22.81929,-0.51924 1.35781,0.51623 1.20055,0.62229 -3.62892,2.44743 -6.04746,2.28544 -8.60392,3.55643 -12.62438,6.2764 -5.65027,3.82261 -9.96741,9.28782 -11.32794,14.34044 -0.76258,2.832 -0.32643,3.66979 1.9118,3.67225 5.32622,0.006 14.33412,2.15624 23.55182,5.62226 5.92691,2.22863 18.20269,7.91511 17.84944,8.26836 -0.11634,0.11634 -2.47398,-0.47239 -5.23919,-1.3083 -7.82316,-2.3649 -11.56733,-3.03232 -18.79375,-3.3501 -5.99629,-0.26368 -6.80018,-0.19926 -7.70242,0.61726 -0.55405,0.50141 -1.00737,1.06519 -1.00737,1.25283 0,0.18765 1.0796,1.11406 2.39911,2.05869 1.31951,0.94464 4.55832,3.36181 7.19734,5.37149 2.63902,2.00967 6.24135,4.7414 8.00518,6.07051 3.89288,2.93341 8.75085,8.45484 12.72841,14.46674 2.83087,4.27873 4.97021,9.13392 4.31387,9.79025 -0.17009,0.1701 -0.93192,-0.27668 -1.69295,-0.99285 -2.01754,-1.89859 -17.98193,-12.31931 -21.95294,-14.32973 -3.84788,-1.94808 -5.44218,-2.18191 -5.44218,-0.79816 0,0.5068 1.60192,4.99567 3.55983,9.97525 1.95791,4.97958 4.01616,10.64477 4.5739,12.58932 1.10991,3.8697 1.91927,14.59525 1.94378,25.75889 l 0.0144,6.56599 -1.93561,-3.03046 c -1.9204,-3.00666 -6.63085,-9.45869 -10.96019,-15.01247 -2.39519,-3.07261 -6.89119,-6.71032 -8.92423,-7.22058 -0.81322,-0.20411 -1.45573,-0.0313 -1.90739,0.51289 -0.57879,0.69739 -0.44029,1.82762 0.92196,7.52366 2.66813,11.15648 3.24287,16.1481 2.94306,25.56072 -0.2574,8.08119 -0.97015,13.13198 -1.85315,13.13198 -0.23657,0 -0.55691,-0.39945 -0.71186,-0.88766 -0.43116,-1.35844 -4.527,-5.43207 -8.54744,-8.5011 -1.9873,-1.51701 -4.5969,-3.54805 -5.79911,-4.51341 -1.20219,-0.96536 -2.7276,-1.7552 -3.38978,-1.7552 -1.41087,0 -1.96432,1.62662 -2.49182,7.32361 -0.76652,8.2784 -3.2562,21.44993 -4.27167,22.59901 -0.18258,0.2066 -1.356959,-0.70253 -2.609719,-2.02031 z m -24.25779,-47.33444 c 4.80891,-1.01159 10.37863,-3.21319 14.85172,-5.87061 4.00022,-2.37648 9.96025,-7.85206 9.96025,-9.15065 0,-0.53799 -1.61556,-1.60207 -4.67196,-3.07716 -5.4719,-2.64087 -4.70326,-2.35525 -13.98086,-5.19509 -23.0273,-7.04856 -34.73251,-8.02425 -42.65246,-3.55528 -3.83235,2.16247 -12.39413,9.73871 -14.36064,12.70759 -2.51008,3.78953 -2.30182,4.32751 2.53021,6.53629 10.76841,4.92238 20.02081,7.58189 28.94967,8.32129 6.89249,0.57077 14.61211,0.28533 19.37407,-0.71638 z m 22.52595,-51.26084 c 2.97169,-1.45196 6.370509,-4.70641 7.748599,-7.41948 1.23513,-2.43161 2.21567,-7.08701 2.19002,-10.39777 -0.0642,-8.28751 -9.833089,-15.98259 -20.347779,-16.02821 -4.24404,-0.0184 -7.71981,1.30937 -10.8023,4.12659 -1.46057,1.33488 -2.79186,2.42706 -2.95841,2.42706 -0.16656,0 -1.12854,-1.2436 -2.13773,-2.76355 -1.0092,-1.51996 -2.20476,-2.88385 -2.65681,-3.03088 -0.45205,-0.14702 -1.19556,-1.15935 -1.65224,-2.24962 -1.61194,-3.84832 -7.60885,-5.17876 -14.84719,-3.2939 -8.15951,2.12472 -14.44803,9.33981 -15.20493,17.44524 -0.41368,4.43008 0.30922,6.40416 3.67742,10.04223 3.71177,4.00915 6.05207,5.0729 11.93245,5.42373 6.09302,0.36351 9.65531,-0.59443 12.72186,-3.42108 l 2.16984,-2.00009 0.30615,1.53076 c 0.70608,3.5304 7.80451,8.93031 13.71178,10.43081 1.47243,0.37401 4.84189,0.5923 8.08122,0.52354 4.7082,-0.0999 5.93912,-0.3052 8.06805,-1.34538 z"
       id="path4163"
       inkscape:connector-curvature="0" />
    <path
       style="opacity:1;fill:#008080;fill-opacity:1;fill-rule:nonzero;stroke:#000000;stroke-width:0.50507629;stroke-linecap:round;stroke-linejoin:round;stroke-miterlimit:4;stroke-dasharray:none;stroke-dashoffset:0;stroke-opacity:1"
       d="m -131.76741,399.63096 c -1.69473,-3.43741 -2.82199,-5.0822 -3.98991,-5.82167 -1.53558,-0.97226 -1.68209,-0.9821 -2.58539,-0.17362 -0.52666,0.47138 -1.52246,2.15373 -2.21288,3.73856 l -1.25531,2.88151 -2.24169,-2.7519 c -2.18411,-2.68123 -4.04473,-3.73877 -5.25833,-2.98872 -0.3293,0.20352 -1.47673,2.27047 -2.54985,4.59323 -1.75725,3.80356 -2.08956,4.22301 -3.34432,4.22132 -1.64193,-0.002 -16.87793,-5.1592 -18.62544,-6.30421 -0.66167,-0.43355 -1.20303,-0.98257 -1.20303,-1.22007 0,-0.23749 2.32966,-2.84084 5.17703,-5.78523 3.63715,-3.76108 5.63118,-5.44393 6.70387,-5.65767 2.20861,-0.44009 3.20402,0.91208 3.69917,5.02501 0.40254,3.34369 1.47225,5.29878 2.5386,4.63974 0.29587,-0.18286 1.11281,-2.15225 1.81543,-4.37644 1.7502,-5.54037 2.43272,-6.70499 5.14147,-8.77328 2.7081,-2.06779 3.50045,-2.1389 9.00071,-0.80785 2.23134,0.53998 4.90045,1.11683 5.93136,1.28189 1.09788,0.17579 2.45793,0.89259 3.283,1.73029 2.05318,2.08463 5.19668,8.63782 5.19668,10.83344 0,1.8336 1.59407,4.18347 2.47047,3.64182 0.22733,-0.14049 0.91825,-1.64026 1.53539,-3.33281 0.71178,-1.95213 1.92448,-3.91482 3.31656,-5.36768 1.98195,-2.06847 2.35736,-2.25857 3.87577,-1.96261 2.38809,0.46548 8.053,3.38408 8.70683,4.48583 0.46774,0.78817 0.15769,1.28206 -2.06101,3.283 -1.43637,1.29539 -3.89647,3.13186 -5.4669,4.08103 -3.05766,1.84807 -10.45946,4.79337 -13.42784,5.34317 l -1.80835,0.33493 -2.36209,-4.79101 z"
       id="path4167"
       inkscape:connector-curvature="0" />
    <path
       style="opacity:1;fill:#000080;fill-opacity:1;fill-rule:nonzero;stroke:#000000;stroke-width:0.50507629;stroke-linecap:round;stroke-linejoin:round;stroke-miterlimit:4;stroke-dasharray:none;stroke-dashoffset:0;stroke-opacity:1"
       d="m -233.36987,278.46741 c -0.55559,-0.32156 -2.34204,-1.56471 -3.96991,-2.76256 -2.42781,-1.78647 -2.74552,-2.17738 -1.76777,-2.17507 2.46671,0.006 4.93984,1.08071 6.45374,2.80494 2.22213,2.53087 1.85599,3.62138 -0.71606,2.13269 z"
       id="path4169"
       inkscape:connector-curvature="0" />
    <path
       style="opacity:1;fill:#000080;fill-opacity:1;fill-rule:nonzero;stroke:#000000;stroke-width:0.50507629;stroke-linecap:round;stroke-linejoin:round;stroke-miterlimit:4;stroke-dasharray:none;stroke-dashoffset:0;stroke-opacity:1"
       d="m -223.01107,270.96334 c 0.006,-0.88313 2.79602,-5.82111 3.55388,-6.28949 1.03883,-0.64203 1.06951,0.18723 0.0877,2.3714 -1.07001,2.38045 -3.64976,5.15608 -3.64161,3.91809 z"
       id="path4171"
       inkscape:connector-curvature="0" />
    <path
       style="opacity:1;fill:#000080;fill-opacity:1;fill-rule:nonzero;stroke:#000000;stroke-width:0.50507629;stroke-linecap:round;stroke-linejoin:round;stroke-miterlimit:4;stroke-dasharray:none;stroke-dashoffset:0;stroke-opacity:1"
       d="m -221.75312,282.34755 c -0.83337,-0.38159 -1.89818,-0.70406 -2.36623,-0.71659 -0.46805,-0.0125 -1.48313,-0.26311 -2.25573,-0.55685 -1.99016,-0.75666 -0.57862,-1.51517 1.58431,-0.85135 1.21489,0.37286 2.8106,0.29319 6.00847,-0.3 6.05693,-1.12354 7.45882,-0.37391 3.86035,2.06423 -1.90098,1.28801 -4.50548,1.42548 -6.83117,0.36056 z"
       id="path4173"
       inkscape:connector-curvature="0" />
    <path
       style="opacity:1;fill:#000080;fill-opacity:1;fill-rule:nonzero;stroke:#000000;stroke-width:0.50507629;stroke-linecap:round;stroke-linejoin:round;stroke-miterlimit:4;stroke-dasharray:none;stroke-dashoffset:0;stroke-opacity:1"
       d="m -17.903711,285.451 c -5.44456,-4.65028 -7.25322,-7.82281 -5.35696,-9.39656 1.61789,-1.34273 4.52497,1.89349 6.12315,6.81643 0.45092,1.38896 1.51555,3.26065 2.36585,4.15932 2.75311,2.90968 1.21638,2.13486 -3.13204,-1.57919 z"
       id="path4175"
       inkscape:connector-curvature="0" />
    <path
       style="opacity:1;fill:#000080;fill-opacity:1;fill-rule:nonzero;stroke:#000000;stroke-width:0.50507629;stroke-linecap:round;stroke-linejoin:round;stroke-miterlimit:4;stroke-dasharray:none;stroke-dashoffset:0;stroke-opacity:1"
       d="m -6.8431612,287.74557 c 0,-3.10895 3.19417,-8.15769 5.1611,-8.15769 3.14284,0 0.35977,6.26235 -3.72085,8.37253 -1.33959,0.69273 -1.44025,0.67771 -1.44025,-0.21484 z"
       id="path4177"
       inkscape:connector-curvature="0" />
    <path
       style="opacity:1;fill:#000080;fill-opacity:1;fill-rule:nonzero;stroke:#000000;stroke-width:0.50507629;stroke-linecap:round;stroke-linejoin:round;stroke-miterlimit:4;stroke-dasharray:none;stroke-dashoffset:0;stroke-opacity:1"
       d="m -22.447441,294.88472 c -1.02343,-0.82873 -1.11231,-1.12943 -0.61082,-2.06647 0.79566,-1.48671 2.67939,-1.8656 5.78872,-1.16436 3.96406,0.89401 4.2511,1.24718 2.09607,2.57906 -2.60624,1.61075 -5.74263,1.89177 -7.27397,0.65177 z"
       id="path4179"
       inkscape:connector-curvature="0" />
  </g>
</svg>
